<mxfile host="app.diagrams.net" agent="Mozilla/5.0 (X11; Linux x86_64) AppleWebKit/537.36 (KHTML, like Gecko) Chrome/131.0.0.0 Safari/537.36" version="24.9.3">
  <diagram name="페이지-1" id="M8YZUyG6wbKtmL6lQQ47">
    <mxGraphModel dx="1195" dy="655" grid="1" gridSize="10" guides="1" tooltips="1" connect="1" arrows="1" fold="1" page="1" pageScale="1" pageWidth="827" pageHeight="1169" math="0" shadow="0">
      <root>
        <mxCell id="0" />
        <mxCell id="1" parent="0" />
        <mxCell id="7jVZ7a8TjIwQfbfn0_7j-74" value="&lt;h2 class=&quot;h4 mb-0&quot; style=&quot;box-sizing: border-box; margin-top: 0px; line-height: 1.2; text-align: start; background-color: rgb(255, 255, 255); margin-bottom: 0px !important;&quot;&gt;&lt;kbd style=&quot;box-sizing: border-box; padding: 0.1875rem 0.375rem; background-color: var(--bs-body-color); border-radius: 0.25rem; font-weight: normal;&quot;&gt;α(s3)&lt;/kbd&gt;&lt;/h2&gt;" style="text;html=1;align=center;verticalAlign=middle;whiteSpace=wrap;rounded=0;fontFamily=Times New Roman;fontSize=10;fontStyle=0;fillColor=none;fontColor=#0000FF;" vertex="1" parent="1">
          <mxGeometry x="770" y="923" width="40" height="30" as="geometry" />
        </mxCell>
        <mxCell id="7jVZ7a8TjIwQfbfn0_7j-73" value="&lt;h2 class=&quot;h4 mb-0&quot; style=&quot;box-sizing: border-box; margin-top: 0px; line-height: 1.2; text-align: start; background-color: rgb(255, 255, 255); margin-bottom: 0px !important;&quot;&gt;&lt;kbd style=&quot;box-sizing: border-box; padding: 0.1875rem 0.375rem; background-color: var(--bs-body-color); border-radius: 0.25rem; font-weight: normal;&quot;&gt;α(s2)&lt;/kbd&gt;&lt;/h2&gt;" style="text;html=1;align=center;verticalAlign=middle;whiteSpace=wrap;rounded=0;fontFamily=Times New Roman;fontSize=10;fontStyle=0;fillColor=none;fontColor=#0000FF;" vertex="1" parent="1">
          <mxGeometry x="574" y="962" width="40" height="30" as="geometry" />
        </mxCell>
        <mxCell id="7jVZ7a8TjIwQfbfn0_7j-71" value="&lt;h2 class=&quot;h4 mb-0&quot; style=&quot;box-sizing: border-box; margin-top: 0px; line-height: 1.2; text-align: start; background-color: rgb(255, 255, 255); margin-bottom: 0px !important;&quot;&gt;&lt;kbd style=&quot;box-sizing: border-box; padding: 0.1875rem 0.375rem; background-color: var(--bs-body-color); border-radius: 0.25rem; font-weight: normal;&quot;&gt;α(s0)&lt;/kbd&gt;&lt;/h2&gt;" style="text;html=1;align=center;verticalAlign=middle;whiteSpace=wrap;rounded=0;fontFamily=Times New Roman;fontSize=10;fontStyle=0;fillColor=none;fontColor=#0000FF;" vertex="1" parent="1">
          <mxGeometry x="639" y="932" width="40" height="30" as="geometry" />
        </mxCell>
        <mxCell id="7jVZ7a8TjIwQfbfn0_7j-1" value="" style="endArrow=classic;html=1;rounded=0;strokeWidth=1;fontFamily=Times New Roman;" edge="1" parent="1">
          <mxGeometry width="50" height="50" relative="1" as="geometry">
            <mxPoint x="80" y="160" as="sourcePoint" />
            <mxPoint x="440" y="160" as="targetPoint" />
          </mxGeometry>
        </mxCell>
        <mxCell id="7jVZ7a8TjIwQfbfn0_7j-2" value="&lt;b&gt;&lt;font&gt;R&lt;/font&gt;&lt;/b&gt;" style="text;html=1;align=center;verticalAlign=middle;whiteSpace=wrap;rounded=0;fontFamily=Times New Roman;fontSize=20;" vertex="1" parent="1">
          <mxGeometry x="410" y="170" width="60" height="30" as="geometry" />
        </mxCell>
        <mxCell id="7jVZ7a8TjIwQfbfn0_7j-3" value="" style="endArrow=baseDash;startArrow=baseDash;html=1;rounded=0;startFill=0;strokeWidth=5;endFill=0;fontFamily=Times New Roman;" edge="1" parent="1">
          <mxGeometry width="50" height="50" relative="1" as="geometry">
            <mxPoint x="160" y="160" as="sourcePoint" />
            <mxPoint x="360" y="160" as="targetPoint" />
          </mxGeometry>
        </mxCell>
        <mxCell id="7jVZ7a8TjIwQfbfn0_7j-4" value="&lt;span&gt;&lt;font&gt;a&lt;/font&gt;&lt;/span&gt;" style="text;html=1;align=center;verticalAlign=middle;whiteSpace=wrap;rounded=0;fontFamily=Times New Roman;fontSize=20;fontStyle=0" vertex="1" parent="1">
          <mxGeometry x="130" y="170" width="60" height="30" as="geometry" />
        </mxCell>
        <mxCell id="7jVZ7a8TjIwQfbfn0_7j-5" value="&lt;span&gt;&lt;font&gt;b&lt;/font&gt;&lt;/span&gt;" style="text;html=1;align=center;verticalAlign=middle;whiteSpace=wrap;rounded=0;fontFamily=Times New Roman;fontSize=20;fontStyle=0" vertex="1" parent="1">
          <mxGeometry x="330" y="170" width="60" height="30" as="geometry" />
        </mxCell>
        <mxCell id="7jVZ7a8TjIwQfbfn0_7j-6" value="&lt;b&gt;&lt;font&gt;I&lt;/font&gt;&lt;/b&gt;" style="text;html=1;align=center;verticalAlign=middle;whiteSpace=wrap;rounded=0;fontFamily=Times New Roman;fontSize=20;" vertex="1" parent="1">
          <mxGeometry x="230" y="120" width="60" height="30" as="geometry" />
        </mxCell>
        <mxCell id="7jVZ7a8TjIwQfbfn0_7j-7" value="" style="curved=1;endArrow=oval;html=1;rounded=0;startArrow=oval;startFill=1;endFill=1;fontFamily=Times New Roman;" edge="1" parent="1">
          <mxGeometry width="50" height="50" relative="1" as="geometry">
            <mxPoint x="570" y="320" as="sourcePoint" />
            <mxPoint x="810" y="160" as="targetPoint" />
            <Array as="points">
              <mxPoint x="660" y="320" />
              <mxPoint x="740" y="200" />
              <mxPoint x="690" y="160" />
              <mxPoint x="620" y="160" />
              <mxPoint x="580" y="180" />
              <mxPoint x="570" y="230" />
              <mxPoint x="590" y="280" />
              <mxPoint x="610" y="290" />
              <mxPoint x="750" y="310" />
            </Array>
          </mxGeometry>
        </mxCell>
        <mxCell id="7jVZ7a8TjIwQfbfn0_7j-8" value="&lt;h2 class=&quot;h4 mb-0&quot; style=&quot;box-sizing: border-box; margin-top: 0px; line-height: 1.2; color: rgb(33, 37, 41); font-size: 1.5rem; text-align: start; background-color: rgb(255, 255, 255); margin-bottom: 0px !important;&quot;&gt;&lt;kbd style=&quot;box-sizing: border-box; font-size: 0.875em; padding: 0.1875rem 0.375rem; color: var(--bs-body-bg); background-color: var(--bs-body-color); border-radius: 0.25rem;&quot;&gt;α(I)&lt;/kbd&gt;&lt;/h2&gt;" style="text;html=1;align=center;verticalAlign=middle;whiteSpace=wrap;rounded=0;fontFamily=Times New Roman;fontSize=20;fontStyle=1;fillColor=none;" vertex="1" parent="1">
          <mxGeometry x="620" y="120" width="60" height="30" as="geometry" />
        </mxCell>
        <mxCell id="7jVZ7a8TjIwQfbfn0_7j-9" value="&lt;h2 style=&quot;box-sizing: border-box; margin-top: 0px; line-height: 1.2; color: rgb(33, 37, 41); font-size: 1.5rem; text-align: start; background-color: rgb(255, 255, 255); margin-bottom: 0px !important;&quot; class=&quot;h4 mb-0&quot;&gt;&lt;font face=&quot;Times New Roman&quot;&gt;&lt;kbd style=&quot;box-sizing: border-box; font-size: 0.875em; padding: 0.1875rem 0.375rem; color: var(--bs-body-bg); background-color: var(--bs-body-color); border-radius: 0.25rem; font-weight: normal;&quot;&gt;α(a) or&lt;/kbd&gt;&lt;/font&gt;&lt;kbd style=&quot;background-color: var(--bs-body-color); color: var(--bs-body-bg); box-sizing: border-box; font-size: 0.875em; padding: 0.1875rem 0.375rem; border-radius: 0.25rem; font-weight: normal;&quot;&gt;α(b)&lt;/kbd&gt;&lt;/h2&gt;" style="text;html=1;align=center;verticalAlign=middle;whiteSpace=wrap;rounded=0;fontFamily=Times New Roman;fontSize=20;fontStyle=0;fillColor=none;" vertex="1" parent="1">
          <mxGeometry x="420" y="330" width="180" height="30" as="geometry" />
        </mxCell>
        <mxCell id="7jVZ7a8TjIwQfbfn0_7j-12" value="" style="endArrow=classic;html=1;rounded=0;endFill=1;fontFamily=Times New Roman;fontColor=#0000FF;strokeColor=#0000FF;" edge="1" parent="1">
          <mxGeometry width="50" height="50" relative="1" as="geometry">
            <mxPoint x="200" y="200" as="sourcePoint" />
            <mxPoint x="200" y="160" as="targetPoint" />
          </mxGeometry>
        </mxCell>
        <mxCell id="7jVZ7a8TjIwQfbfn0_7j-13" value="&lt;span&gt;&lt;font&gt;t&lt;/font&gt;&lt;/span&gt;" style="text;html=1;align=center;verticalAlign=middle;whiteSpace=wrap;rounded=0;fontFamily=Times New Roman;fontSize=20;fontStyle=0;fontColor=#0000FF;" vertex="1" parent="1">
          <mxGeometry x="170" y="200" width="60" height="30" as="geometry" />
        </mxCell>
        <mxCell id="7jVZ7a8TjIwQfbfn0_7j-14" value="" style="ellipse;whiteSpace=wrap;html=1;aspect=fixed;fillColor=#0000FF;strokeColor=none;" vertex="1" parent="1">
          <mxGeometry x="630" y="306" width="10" height="10" as="geometry" />
        </mxCell>
        <mxCell id="7jVZ7a8TjIwQfbfn0_7j-17" value="&lt;h2 class=&quot;h4 mb-0&quot; style=&quot;box-sizing: border-box; margin-top: 0px; line-height: 1.2; font-size: 1.5rem; text-align: start; background-color: rgb(255, 255, 255); margin-bottom: 0px !important;&quot;&gt;&lt;kbd style=&quot;box-sizing: border-box; font-size: 0.875em; padding: 0.1875rem 0.375rem; background-color: var(--bs-body-color); border-radius: 0.25rem; font-weight: normal;&quot;&gt;α(t)&lt;/kbd&gt;&lt;/h2&gt;" style="text;html=1;align=center;verticalAlign=middle;whiteSpace=wrap;rounded=0;fontFamily=Times New Roman;fontSize=20;fontStyle=0;fillColor=none;fontColor=#0000FF;" vertex="1" parent="1">
          <mxGeometry x="610" y="320" width="60" height="30" as="geometry" />
        </mxCell>
        <mxCell id="7jVZ7a8TjIwQfbfn0_7j-19" value="&lt;h2 style=&quot;box-sizing: border-box; margin-top: 0px; line-height: 1.2; color: rgb(33, 37, 41); font-size: 1.5rem; text-align: start; background-color: rgb(255, 255, 255); margin-bottom: 0px !important;&quot; class=&quot;h4 mb-0&quot;&gt;&lt;font face=&quot;Times New Roman&quot;&gt;&lt;kbd style=&quot;box-sizing: border-box; font-size: 0.875em; padding: 0.1875rem 0.375rem; color: var(--bs-body-bg); background-color: var(--bs-body-color); border-radius: 0.25rem; font-weight: normal;&quot;&gt;α(a) or&lt;/kbd&gt;&lt;/font&gt;&lt;kbd style=&quot;background-color: var(--bs-body-color); color: var(--bs-body-bg); box-sizing: border-box; font-size: 0.875em; padding: 0.1875rem 0.375rem; border-radius: 0.25rem; font-weight: normal;&quot;&gt;α(b)&lt;/kbd&gt;&lt;/h2&gt;" style="text;html=1;align=center;verticalAlign=middle;whiteSpace=wrap;rounded=0;fontFamily=Times New Roman;fontSize=20;fontStyle=0;fillColor=none;" vertex="1" parent="1">
          <mxGeometry x="720" y="120" width="180" height="30" as="geometry" />
        </mxCell>
        <mxCell id="7jVZ7a8TjIwQfbfn0_7j-20" value="" style="endArrow=classic;html=1;rounded=0;strokeWidth=1;fontFamily=Times New Roman;" edge="1" parent="1">
          <mxGeometry width="50" height="50" relative="1" as="geometry">
            <mxPoint x="80" y="520" as="sourcePoint" />
            <mxPoint x="440" y="520" as="targetPoint" />
          </mxGeometry>
        </mxCell>
        <mxCell id="7jVZ7a8TjIwQfbfn0_7j-21" value="&lt;b&gt;&lt;font&gt;R&lt;/font&gt;&lt;/b&gt;" style="text;html=1;align=center;verticalAlign=middle;whiteSpace=wrap;rounded=0;fontFamily=Times New Roman;fontSize=20;" vertex="1" parent="1">
          <mxGeometry x="410" y="530" width="60" height="30" as="geometry" />
        </mxCell>
        <mxCell id="7jVZ7a8TjIwQfbfn0_7j-22" value="" style="endArrow=baseDash;startArrow=baseDash;html=1;rounded=0;startFill=0;strokeWidth=5;endFill=0;fontFamily=Times New Roman;" edge="1" parent="1">
          <mxGeometry width="50" height="50" relative="1" as="geometry">
            <mxPoint x="160" y="520" as="sourcePoint" />
            <mxPoint x="360" y="520" as="targetPoint" />
          </mxGeometry>
        </mxCell>
        <mxCell id="7jVZ7a8TjIwQfbfn0_7j-23" value="&lt;span&gt;&lt;font&gt;a&lt;/font&gt;&lt;/span&gt;" style="text;html=1;align=center;verticalAlign=middle;whiteSpace=wrap;rounded=0;fontFamily=Times New Roman;fontSize=20;fontStyle=0" vertex="1" parent="1">
          <mxGeometry x="130" y="530" width="60" height="30" as="geometry" />
        </mxCell>
        <mxCell id="7jVZ7a8TjIwQfbfn0_7j-24" value="&lt;span&gt;&lt;font&gt;b&lt;/font&gt;&lt;/span&gt;" style="text;html=1;align=center;verticalAlign=middle;whiteSpace=wrap;rounded=0;fontFamily=Times New Roman;fontSize=20;fontStyle=0" vertex="1" parent="1">
          <mxGeometry x="330" y="530" width="60" height="30" as="geometry" />
        </mxCell>
        <mxCell id="7jVZ7a8TjIwQfbfn0_7j-25" value="&lt;b&gt;&lt;font&gt;I&lt;/font&gt;&lt;/b&gt;" style="text;html=1;align=center;verticalAlign=middle;whiteSpace=wrap;rounded=0;fontFamily=Times New Roman;fontSize=20;" vertex="1" parent="1">
          <mxGeometry x="230" y="480" width="60" height="30" as="geometry" />
        </mxCell>
        <mxCell id="7jVZ7a8TjIwQfbfn0_7j-26" value="" style="curved=1;endArrow=oval;html=1;rounded=0;startArrow=oval;startFill=1;endFill=1;fontFamily=Times New Roman;" edge="1" parent="1">
          <mxGeometry width="50" height="50" relative="1" as="geometry">
            <mxPoint x="570" y="680" as="sourcePoint" />
            <mxPoint x="810" y="520" as="targetPoint" />
            <Array as="points">
              <mxPoint x="660" y="680" />
              <mxPoint x="740" y="560" />
              <mxPoint x="690" y="520" />
              <mxPoint x="620" y="520" />
              <mxPoint x="580" y="540" />
              <mxPoint x="570" y="590" />
              <mxPoint x="590" y="640" />
              <mxPoint x="610" y="650" />
              <mxPoint x="750" y="670" />
            </Array>
          </mxGeometry>
        </mxCell>
        <mxCell id="7jVZ7a8TjIwQfbfn0_7j-27" value="&lt;h2 class=&quot;h4 mb-0&quot; style=&quot;box-sizing: border-box; margin-top: 0px; line-height: 1.2; color: rgb(33, 37, 41); font-size: 1.5rem; text-align: start; background-color: rgb(255, 255, 255); margin-bottom: 0px !important;&quot;&gt;&lt;kbd style=&quot;box-sizing: border-box; font-size: 0.875em; padding: 0.1875rem 0.375rem; color: var(--bs-body-bg); background-color: var(--bs-body-color); border-radius: 0.25rem;&quot;&gt;α(I)&lt;/kbd&gt;&lt;/h2&gt;" style="text;html=1;align=center;verticalAlign=middle;whiteSpace=wrap;rounded=0;fontFamily=Times New Roman;fontSize=20;fontStyle=1;fillColor=none;" vertex="1" parent="1">
          <mxGeometry x="620" y="480" width="60" height="30" as="geometry" />
        </mxCell>
        <mxCell id="7jVZ7a8TjIwQfbfn0_7j-28" value="&lt;h2 style=&quot;box-sizing: border-box; margin-top: 0px; line-height: 1.2; color: rgb(33, 37, 41); font-size: 1.5rem; text-align: start; background-color: rgb(255, 255, 255); margin-bottom: 0px !important;&quot; class=&quot;h4 mb-0&quot;&gt;&lt;font face=&quot;Times New Roman&quot;&gt;&lt;kbd style=&quot;box-sizing: border-box; font-size: 0.875em; padding: 0.1875rem 0.375rem; color: var(--bs-body-bg); background-color: var(--bs-body-color); border-radius: 0.25rem; font-weight: normal;&quot;&gt;α(a)&lt;/kbd&gt;&lt;/font&gt;&lt;/h2&gt;" style="text;html=1;align=center;verticalAlign=middle;whiteSpace=wrap;rounded=0;fontFamily=Times New Roman;fontSize=20;fontStyle=0;fillColor=none;" vertex="1" parent="1">
          <mxGeometry x="530" y="690" width="80" height="30" as="geometry" />
        </mxCell>
        <mxCell id="7jVZ7a8TjIwQfbfn0_7j-29" value="" style="endArrow=classic;html=1;rounded=0;endFill=1;fontFamily=Times New Roman;fontColor=#0000FF;strokeColor=#0000FF;" edge="1" parent="1">
          <mxGeometry width="50" height="50" relative="1" as="geometry">
            <mxPoint x="200" y="560" as="sourcePoint" />
            <mxPoint x="200" y="520" as="targetPoint" />
          </mxGeometry>
        </mxCell>
        <mxCell id="7jVZ7a8TjIwQfbfn0_7j-30" value="&lt;span&gt;&lt;font&gt;t0&lt;/font&gt;&lt;/span&gt;" style="text;html=1;align=center;verticalAlign=middle;whiteSpace=wrap;rounded=0;fontFamily=Times New Roman;fontSize=20;fontStyle=0;fontColor=#0000FF;" vertex="1" parent="1">
          <mxGeometry x="180" y="560" width="40" height="30" as="geometry" />
        </mxCell>
        <mxCell id="7jVZ7a8TjIwQfbfn0_7j-31" value="" style="ellipse;whiteSpace=wrap;html=1;aspect=fixed;fillColor=#0000FF;strokeColor=none;" vertex="1" parent="1">
          <mxGeometry x="607" y="673" width="10" height="10" as="geometry" />
        </mxCell>
        <mxCell id="7jVZ7a8TjIwQfbfn0_7j-32" value="&lt;h2 class=&quot;h4 mb-0&quot; style=&quot;box-sizing: border-box; margin-top: 0px; line-height: 1.2; text-align: start; background-color: rgb(255, 255, 255); margin-bottom: 0px !important;&quot;&gt;&lt;kbd style=&quot;box-sizing: border-box; padding: 0.1875rem 0.375rem; background-color: var(--bs-body-color); border-radius: 0.25rem; font-weight: normal;&quot;&gt;α(t0)&lt;/kbd&gt;&lt;/h2&gt;" style="text;html=1;align=center;verticalAlign=middle;whiteSpace=wrap;rounded=0;fontFamily=Times New Roman;fontSize=10;fontStyle=0;fillColor=none;fontColor=#0000FF;" vertex="1" parent="1">
          <mxGeometry x="607" y="683" width="40" height="30" as="geometry" />
        </mxCell>
        <mxCell id="7jVZ7a8TjIwQfbfn0_7j-33" value="&lt;h2 style=&quot;box-sizing: border-box; margin-top: 0px; line-height: 1.2; color: rgb(33, 37, 41); font-size: 1.5rem; text-align: start; background-color: rgb(255, 255, 255); margin-bottom: 0px !important;&quot; class=&quot;h4 mb-0&quot;&gt;&lt;kbd style=&quot;background-color: var(--bs-body-color); color: var(--bs-body-bg); box-sizing: border-box; font-size: 0.875em; padding: 0.1875rem 0.375rem; border-radius: 0.25rem; font-weight: normal;&quot;&gt;α(b)&lt;/kbd&gt;&lt;/h2&gt;" style="text;html=1;align=center;verticalAlign=middle;whiteSpace=wrap;rounded=0;fontFamily=Times New Roman;fontSize=20;fontStyle=0;fillColor=none;" vertex="1" parent="1">
          <mxGeometry x="770" y="480" width="80" height="30" as="geometry" />
        </mxCell>
        <mxCell id="7jVZ7a8TjIwQfbfn0_7j-36" value="" style="endArrow=classic;html=1;rounded=0;endFill=1;fontFamily=Times New Roman;fontColor=#0000FF;strokeColor=#0000FF;" edge="1" parent="1">
          <mxGeometry width="50" height="50" relative="1" as="geometry">
            <mxPoint x="240" y="560" as="sourcePoint" />
            <mxPoint x="240" y="520" as="targetPoint" />
          </mxGeometry>
        </mxCell>
        <mxCell id="7jVZ7a8TjIwQfbfn0_7j-37" value="&lt;span&gt;&lt;font&gt;t1&lt;/font&gt;&lt;/span&gt;" style="text;html=1;align=center;verticalAlign=middle;whiteSpace=wrap;rounded=0;fontFamily=Times New Roman;fontSize=20;fontStyle=0;fontColor=#0000FF;" vertex="1" parent="1">
          <mxGeometry x="220" y="560" width="40" height="30" as="geometry" />
        </mxCell>
        <mxCell id="7jVZ7a8TjIwQfbfn0_7j-38" value="" style="endArrow=classic;html=1;rounded=0;endFill=1;fontFamily=Times New Roman;fontColor=#0000FF;strokeColor=#0000FF;" edge="1" parent="1">
          <mxGeometry width="50" height="50" relative="1" as="geometry">
            <mxPoint x="280" y="560" as="sourcePoint" />
            <mxPoint x="280" y="520" as="targetPoint" />
          </mxGeometry>
        </mxCell>
        <mxCell id="7jVZ7a8TjIwQfbfn0_7j-39" value="&lt;span&gt;&lt;font&gt;t2&lt;/font&gt;&lt;/span&gt;" style="text;html=1;align=center;verticalAlign=middle;whiteSpace=wrap;rounded=0;fontFamily=Times New Roman;fontSize=20;fontStyle=0;fontColor=#0000FF;" vertex="1" parent="1">
          <mxGeometry x="260" y="560" width="40" height="30" as="geometry" />
        </mxCell>
        <mxCell id="7jVZ7a8TjIwQfbfn0_7j-40" value="" style="endArrow=classic;html=1;rounded=0;endFill=1;fontFamily=Times New Roman;fontColor=#0000FF;strokeColor=#0000FF;" edge="1" parent="1">
          <mxGeometry width="50" height="50" relative="1" as="geometry">
            <mxPoint x="320" y="560" as="sourcePoint" />
            <mxPoint x="320" y="520" as="targetPoint" />
          </mxGeometry>
        </mxCell>
        <mxCell id="7jVZ7a8TjIwQfbfn0_7j-41" value="&lt;span&gt;&lt;font&gt;t3&lt;/font&gt;&lt;/span&gt;" style="text;html=1;align=center;verticalAlign=middle;whiteSpace=wrap;rounded=0;fontFamily=Times New Roman;fontSize=20;fontStyle=0;fontColor=#0000FF;" vertex="1" parent="1">
          <mxGeometry x="300" y="560" width="40" height="30" as="geometry" />
        </mxCell>
        <mxCell id="7jVZ7a8TjIwQfbfn0_7j-42" value="" style="ellipse;whiteSpace=wrap;html=1;aspect=fixed;fillColor=#0000FF;strokeColor=none;" vertex="1" parent="1">
          <mxGeometry x="642" y="662" width="10" height="10" as="geometry" />
        </mxCell>
        <mxCell id="7jVZ7a8TjIwQfbfn0_7j-43" value="" style="ellipse;whiteSpace=wrap;html=1;aspect=fixed;fillColor=#0000FF;strokeColor=none;" vertex="1" parent="1">
          <mxGeometry x="569" y="567" width="10" height="10" as="geometry" />
        </mxCell>
        <mxCell id="7jVZ7a8TjIwQfbfn0_7j-44" value="" style="ellipse;whiteSpace=wrap;html=1;aspect=fixed;fillColor=#0000FF;strokeColor=none;" vertex="1" parent="1">
          <mxGeometry x="712" y="583" width="10" height="10" as="geometry" />
        </mxCell>
        <mxCell id="7jVZ7a8TjIwQfbfn0_7j-45" value="&lt;h2 class=&quot;h4 mb-0&quot; style=&quot;box-sizing: border-box; margin-top: 0px; line-height: 1.2; text-align: start; background-color: rgb(255, 255, 255); margin-bottom: 0px !important;&quot;&gt;&lt;kbd style=&quot;box-sizing: border-box; padding: 0.1875rem 0.375rem; background-color: var(--bs-body-color); border-radius: 0.25rem; font-weight: normal;&quot;&gt;α(t1)&lt;/kbd&gt;&lt;/h2&gt;" style="text;html=1;align=center;verticalAlign=middle;whiteSpace=wrap;rounded=0;fontFamily=Times New Roman;fontSize=10;fontStyle=0;fillColor=none;fontColor=#0000FF;" vertex="1" parent="1">
          <mxGeometry x="660" y="672" width="40" height="30" as="geometry" />
        </mxCell>
        <mxCell id="7jVZ7a8TjIwQfbfn0_7j-46" value="&lt;h2 class=&quot;h4 mb-0&quot; style=&quot;box-sizing: border-box; margin-top: 0px; line-height: 1.2; text-align: start; background-color: rgb(255, 255, 255); margin-bottom: 0px !important;&quot;&gt;&lt;kbd style=&quot;box-sizing: border-box; padding: 0.1875rem 0.375rem; background-color: var(--bs-body-color); border-radius: 0.25rem; font-weight: normal;&quot;&gt;α(t2)&lt;/kbd&gt;&lt;/h2&gt;" style="text;html=1;align=center;verticalAlign=middle;whiteSpace=wrap;rounded=0;fontFamily=Times New Roman;fontSize=10;fontStyle=0;fillColor=none;fontColor=#0000FF;" vertex="1" parent="1">
          <mxGeometry x="670" y="557" width="40" height="30" as="geometry" />
        </mxCell>
        <mxCell id="7jVZ7a8TjIwQfbfn0_7j-47" value="&lt;h2 class=&quot;h4 mb-0&quot; style=&quot;box-sizing: border-box; margin-top: 0px; line-height: 1.2; text-align: start; background-color: rgb(255, 255, 255); margin-bottom: 0px !important;&quot;&gt;&lt;kbd style=&quot;box-sizing: border-box; padding: 0.1875rem 0.375rem; background-color: var(--bs-body-color); border-radius: 0.25rem; font-weight: normal;&quot;&gt;α(t3)&lt;/kbd&gt;&lt;/h2&gt;" style="text;html=1;align=center;verticalAlign=middle;whiteSpace=wrap;rounded=0;fontFamily=Times New Roman;fontSize=10;fontStyle=0;fillColor=none;fontColor=#0000FF;" vertex="1" parent="1">
          <mxGeometry x="530" y="530" width="40" height="30" as="geometry" />
        </mxCell>
        <mxCell id="7jVZ7a8TjIwQfbfn0_7j-54" value="" style="curved=1;endArrow=oval;html=1;rounded=0;startArrow=oval;startFill=1;endFill=1;fontFamily=Times New Roman;" edge="1" parent="1">
          <mxGeometry width="50" height="50" relative="1" as="geometry">
            <mxPoint x="570" y="1000" as="sourcePoint" />
            <mxPoint x="810" y="840" as="targetPoint" />
            <Array as="points">
              <mxPoint x="660" y="1000" />
              <mxPoint x="740" y="880" />
              <mxPoint x="690" y="840" />
              <mxPoint x="620" y="840" />
              <mxPoint x="580" y="860" />
              <mxPoint x="570" y="910" />
              <mxPoint x="590" y="960" />
              <mxPoint x="610" y="970" />
              <mxPoint x="750" y="990" />
            </Array>
          </mxGeometry>
        </mxCell>
        <mxCell id="7jVZ7a8TjIwQfbfn0_7j-55" value="&lt;h2 class=&quot;h4 mb-0&quot; style=&quot;box-sizing: border-box; margin-top: 0px; line-height: 1.2; color: rgb(33, 37, 41); font-size: 1.5rem; text-align: start; background-color: rgb(255, 255, 255); margin-bottom: 0px !important;&quot;&gt;&lt;kbd style=&quot;box-sizing: border-box; font-size: 0.875em; padding: 0.1875rem 0.375rem; color: var(--bs-body-bg); background-color: var(--bs-body-color); border-radius: 0.25rem;&quot;&gt;α(I)&lt;/kbd&gt;&lt;/h2&gt;" style="text;html=1;align=center;verticalAlign=middle;whiteSpace=wrap;rounded=0;fontFamily=Times New Roman;fontSize=20;fontStyle=1;fillColor=none;" vertex="1" parent="1">
          <mxGeometry x="620" y="800" width="60" height="30" as="geometry" />
        </mxCell>
        <mxCell id="7jVZ7a8TjIwQfbfn0_7j-56" value="&lt;h2 style=&quot;box-sizing: border-box; margin-top: 0px; line-height: 1.2; color: rgb(33, 37, 41); font-size: 1.5rem; text-align: start; background-color: rgb(255, 255, 255); margin-bottom: 0px !important;&quot; class=&quot;h4 mb-0&quot;&gt;&lt;font face=&quot;Times New Roman&quot;&gt;&lt;kbd style=&quot;box-sizing: border-box; font-size: 0.875em; padding: 0.1875rem 0.375rem; color: var(--bs-body-bg); background-color: var(--bs-body-color); border-radius: 0.25rem; font-weight: normal;&quot;&gt;α(c)&lt;/kbd&gt;&lt;/font&gt;&lt;/h2&gt;" style="text;html=1;align=center;verticalAlign=middle;whiteSpace=wrap;rounded=0;fontFamily=Times New Roman;fontSize=20;fontStyle=0;fillColor=none;" vertex="1" parent="1">
          <mxGeometry x="530" y="1010" width="80" height="30" as="geometry" />
        </mxCell>
        <mxCell id="7jVZ7a8TjIwQfbfn0_7j-59" value="" style="ellipse;whiteSpace=wrap;html=1;aspect=fixed;fillColor=#0000FF;strokeColor=none;" vertex="1" parent="1">
          <mxGeometry x="669" y="962" width="10" height="10" as="geometry" />
        </mxCell>
        <mxCell id="7jVZ7a8TjIwQfbfn0_7j-61" value="&lt;h2 style=&quot;box-sizing: border-box; margin-top: 0px; line-height: 1.2; color: rgb(33, 37, 41); font-size: 1.5rem; text-align: start; background-color: rgb(255, 255, 255); margin-bottom: 0px !important;&quot; class=&quot;h4 mb-0&quot;&gt;&lt;kbd style=&quot;background-color: var(--bs-body-color); color: var(--bs-body-bg); box-sizing: border-box; font-size: 0.875em; padding: 0.1875rem 0.375rem; border-radius: 0.25rem; font-weight: normal;&quot;&gt;α(d)&lt;/kbd&gt;&lt;/h2&gt;" style="text;html=1;align=center;verticalAlign=middle;whiteSpace=wrap;rounded=0;fontFamily=Times New Roman;fontSize=20;fontStyle=0;fillColor=none;" vertex="1" parent="1">
          <mxGeometry x="770" y="800" width="80" height="30" as="geometry" />
        </mxCell>
        <mxCell id="7jVZ7a8TjIwQfbfn0_7j-68" value="" style="ellipse;whiteSpace=wrap;html=1;aspect=fixed;fillColor=#0000FF;strokeColor=none;" vertex="1" parent="1">
          <mxGeometry x="764" y="917" width="10" height="10" as="geometry" />
        </mxCell>
        <mxCell id="7jVZ7a8TjIwQfbfn0_7j-69" value="" style="ellipse;whiteSpace=wrap;html=1;aspect=fixed;fillColor=#0000FF;strokeColor=none;" vertex="1" parent="1">
          <mxGeometry x="624" y="967" width="10" height="10" as="geometry" />
        </mxCell>
        <mxCell id="7jVZ7a8TjIwQfbfn0_7j-70" value="" style="ellipse;whiteSpace=wrap;html=1;aspect=fixed;fillColor=#0000FF;strokeColor=none;" vertex="1" parent="1">
          <mxGeometry x="604" y="841" width="10" height="10" as="geometry" />
        </mxCell>
        <mxCell id="7jVZ7a8TjIwQfbfn0_7j-72" value="&lt;h2 class=&quot;h4 mb-0&quot; style=&quot;box-sizing: border-box; margin-top: 0px; line-height: 1.2; text-align: start; background-color: rgb(255, 255, 255); margin-bottom: 0px !important;&quot;&gt;&lt;kbd style=&quot;box-sizing: border-box; padding: 0.1875rem 0.375rem; background-color: var(--bs-body-color); border-radius: 0.25rem; font-weight: normal;&quot;&gt;α(s1)&lt;/kbd&gt;&lt;/h2&gt;" style="text;html=1;align=center;verticalAlign=middle;whiteSpace=wrap;rounded=0;fontFamily=Times New Roman;fontSize=10;fontStyle=0;fillColor=none;fontColor=#0000FF;" vertex="1" parent="1">
          <mxGeometry x="617" y="850" width="40" height="30" as="geometry" />
        </mxCell>
        <mxCell id="7jVZ7a8TjIwQfbfn0_7j-75" value="" style="endArrow=classic;html=1;rounded=0;strokeWidth=1;fontFamily=Times New Roman;" edge="1" parent="1">
          <mxGeometry width="50" height="50" relative="1" as="geometry">
            <mxPoint x="80" y="1000" as="sourcePoint" />
            <mxPoint x="440" y="1000" as="targetPoint" />
          </mxGeometry>
        </mxCell>
        <mxCell id="7jVZ7a8TjIwQfbfn0_7j-76" value="&lt;b&gt;&lt;font&gt;R&lt;/font&gt;&lt;/b&gt;" style="text;html=1;align=center;verticalAlign=middle;whiteSpace=wrap;rounded=0;fontFamily=Times New Roman;fontSize=20;" vertex="1" parent="1">
          <mxGeometry x="410" y="1010" width="60" height="30" as="geometry" />
        </mxCell>
        <mxCell id="7jVZ7a8TjIwQfbfn0_7j-77" value="" style="endArrow=baseDash;startArrow=baseDash;html=1;rounded=0;startFill=0;strokeWidth=5;endFill=0;fontFamily=Times New Roman;" edge="1" parent="1">
          <mxGeometry width="50" height="50" relative="1" as="geometry">
            <mxPoint x="160" y="1000" as="sourcePoint" />
            <mxPoint x="360" y="1000" as="targetPoint" />
          </mxGeometry>
        </mxCell>
        <mxCell id="7jVZ7a8TjIwQfbfn0_7j-78" value="c" style="text;html=1;align=center;verticalAlign=middle;whiteSpace=wrap;rounded=0;fontFamily=Times New Roman;fontSize=20;fontStyle=0" vertex="1" parent="1">
          <mxGeometry x="130" y="1010" width="60" height="30" as="geometry" />
        </mxCell>
        <mxCell id="7jVZ7a8TjIwQfbfn0_7j-79" value="d" style="text;html=1;align=center;verticalAlign=middle;whiteSpace=wrap;rounded=0;fontFamily=Times New Roman;fontSize=20;fontStyle=0" vertex="1" parent="1">
          <mxGeometry x="330" y="1010" width="60" height="30" as="geometry" />
        </mxCell>
        <mxCell id="7jVZ7a8TjIwQfbfn0_7j-80" value="&lt;b&gt;&lt;font&gt;I&lt;/font&gt;&lt;/b&gt;" style="text;html=1;align=center;verticalAlign=middle;whiteSpace=wrap;rounded=0;fontFamily=Times New Roman;fontSize=20;" vertex="1" parent="1">
          <mxGeometry x="230" y="960" width="60" height="30" as="geometry" />
        </mxCell>
        <mxCell id="7jVZ7a8TjIwQfbfn0_7j-81" value="" style="endArrow=classic;html=1;rounded=0;endFill=1;fontFamily=Times New Roman;fontColor=#0000FF;strokeColor=#0000FF;" edge="1" parent="1">
          <mxGeometry width="50" height="50" relative="1" as="geometry">
            <mxPoint x="200" y="1040" as="sourcePoint" />
            <mxPoint x="200" y="1000" as="targetPoint" />
          </mxGeometry>
        </mxCell>
        <mxCell id="7jVZ7a8TjIwQfbfn0_7j-82" value="&lt;span&gt;&lt;font&gt;s0&lt;/font&gt;&lt;/span&gt;" style="text;html=1;align=center;verticalAlign=middle;whiteSpace=wrap;rounded=0;fontFamily=Times New Roman;fontSize=20;fontStyle=0;fontColor=#0000FF;" vertex="1" parent="1">
          <mxGeometry x="180" y="1040" width="40" height="30" as="geometry" />
        </mxCell>
        <mxCell id="7jVZ7a8TjIwQfbfn0_7j-83" value="" style="endArrow=classic;html=1;rounded=0;endFill=1;fontFamily=Times New Roman;fontColor=#0000FF;strokeColor=#0000FF;" edge="1" parent="1">
          <mxGeometry width="50" height="50" relative="1" as="geometry">
            <mxPoint x="240" y="1040" as="sourcePoint" />
            <mxPoint x="240" y="1000" as="targetPoint" />
          </mxGeometry>
        </mxCell>
        <mxCell id="7jVZ7a8TjIwQfbfn0_7j-84" value="&lt;span&gt;&lt;font&gt;s1&lt;/font&gt;&lt;/span&gt;" style="text;html=1;align=center;verticalAlign=middle;whiteSpace=wrap;rounded=0;fontFamily=Times New Roman;fontSize=20;fontStyle=0;fontColor=#0000FF;" vertex="1" parent="1">
          <mxGeometry x="220" y="1040" width="40" height="30" as="geometry" />
        </mxCell>
        <mxCell id="7jVZ7a8TjIwQfbfn0_7j-85" value="" style="endArrow=classic;html=1;rounded=0;endFill=1;fontFamily=Times New Roman;fontColor=#0000FF;strokeColor=#0000FF;" edge="1" parent="1">
          <mxGeometry width="50" height="50" relative="1" as="geometry">
            <mxPoint x="280" y="1040" as="sourcePoint" />
            <mxPoint x="280" y="1000" as="targetPoint" />
          </mxGeometry>
        </mxCell>
        <mxCell id="7jVZ7a8TjIwQfbfn0_7j-86" value="&lt;span&gt;&lt;font&gt;s2&lt;/font&gt;&lt;/span&gt;" style="text;html=1;align=center;verticalAlign=middle;whiteSpace=wrap;rounded=0;fontFamily=Times New Roman;fontSize=20;fontStyle=0;fontColor=#0000FF;" vertex="1" parent="1">
          <mxGeometry x="260" y="1040" width="40" height="30" as="geometry" />
        </mxCell>
        <mxCell id="7jVZ7a8TjIwQfbfn0_7j-87" value="" style="endArrow=classic;html=1;rounded=0;endFill=1;fontFamily=Times New Roman;fontColor=#0000FF;strokeColor=#0000FF;" edge="1" parent="1">
          <mxGeometry width="50" height="50" relative="1" as="geometry">
            <mxPoint x="320" y="1040" as="sourcePoint" />
            <mxPoint x="320" y="1000" as="targetPoint" />
          </mxGeometry>
        </mxCell>
        <mxCell id="7jVZ7a8TjIwQfbfn0_7j-88" value="&lt;span&gt;&lt;font&gt;s3&lt;/font&gt;&lt;/span&gt;" style="text;html=1;align=center;verticalAlign=middle;whiteSpace=wrap;rounded=0;fontFamily=Times New Roman;fontSize=20;fontStyle=0;fontColor=#0000FF;" vertex="1" parent="1">
          <mxGeometry x="300" y="1040" width="40" height="30" as="geometry" />
        </mxCell>
        <mxCell id="7jVZ7a8TjIwQfbfn0_7j-89" value="" style="endArrow=classic;html=1;rounded=0;strokeWidth=1;fontFamily=Times New Roman;" edge="1" parent="1">
          <mxGeometry width="50" height="50" relative="1" as="geometry">
            <mxPoint x="80" y="840" as="sourcePoint" />
            <mxPoint x="440" y="840" as="targetPoint" />
          </mxGeometry>
        </mxCell>
        <mxCell id="7jVZ7a8TjIwQfbfn0_7j-90" value="" style="endArrow=baseDash;startArrow=baseDash;html=1;rounded=0;startFill=0;strokeWidth=5;endFill=0;fontFamily=Times New Roman;" edge="1" parent="1">
          <mxGeometry width="50" height="50" relative="1" as="geometry">
            <mxPoint x="160" y="840" as="sourcePoint" />
            <mxPoint x="360" y="840" as="targetPoint" />
          </mxGeometry>
        </mxCell>
        <mxCell id="7jVZ7a8TjIwQfbfn0_7j-91" value="&lt;span&gt;&lt;font&gt;a&lt;/font&gt;&lt;/span&gt;" style="text;html=1;align=center;verticalAlign=middle;whiteSpace=wrap;rounded=0;fontFamily=Times New Roman;fontSize=20;fontStyle=0" vertex="1" parent="1">
          <mxGeometry x="130" y="850" width="60" height="30" as="geometry" />
        </mxCell>
        <mxCell id="7jVZ7a8TjIwQfbfn0_7j-92" value="&lt;span&gt;&lt;font&gt;b&lt;/font&gt;&lt;/span&gt;" style="text;html=1;align=center;verticalAlign=middle;whiteSpace=wrap;rounded=0;fontFamily=Times New Roman;fontSize=20;fontStyle=0" vertex="1" parent="1">
          <mxGeometry x="330" y="850" width="60" height="30" as="geometry" />
        </mxCell>
        <mxCell id="7jVZ7a8TjIwQfbfn0_7j-93" value="&lt;b&gt;&lt;font&gt;I&lt;/font&gt;&lt;/b&gt;" style="text;html=1;align=center;verticalAlign=middle;whiteSpace=wrap;rounded=0;fontFamily=Times New Roman;fontSize=20;" vertex="1" parent="1">
          <mxGeometry x="230" y="800" width="60" height="30" as="geometry" />
        </mxCell>
        <mxCell id="7jVZ7a8TjIwQfbfn0_7j-94" value="" style="endArrow=classic;html=1;rounded=0;endFill=1;fontFamily=Times New Roman;fontColor=#0000FF;strokeColor=#0000FF;" edge="1" parent="1">
          <mxGeometry width="50" height="50" relative="1" as="geometry">
            <mxPoint x="200" y="880" as="sourcePoint" />
            <mxPoint x="200" y="840" as="targetPoint" />
          </mxGeometry>
        </mxCell>
        <mxCell id="7jVZ7a8TjIwQfbfn0_7j-95" value="&lt;span&gt;&lt;font&gt;t0&lt;/font&gt;&lt;/span&gt;" style="text;html=1;align=center;verticalAlign=middle;whiteSpace=wrap;rounded=0;fontFamily=Times New Roman;fontSize=20;fontStyle=0;fontColor=#0000FF;" vertex="1" parent="1">
          <mxGeometry x="180" y="880" width="40" height="30" as="geometry" />
        </mxCell>
        <mxCell id="7jVZ7a8TjIwQfbfn0_7j-96" value="" style="endArrow=classic;html=1;rounded=0;endFill=1;fontFamily=Times New Roman;fontColor=#0000FF;strokeColor=#0000FF;" edge="1" parent="1">
          <mxGeometry width="50" height="50" relative="1" as="geometry">
            <mxPoint x="240" y="880" as="sourcePoint" />
            <mxPoint x="240" y="840" as="targetPoint" />
          </mxGeometry>
        </mxCell>
        <mxCell id="7jVZ7a8TjIwQfbfn0_7j-97" value="&lt;span&gt;&lt;font&gt;t1&lt;/font&gt;&lt;/span&gt;" style="text;html=1;align=center;verticalAlign=middle;whiteSpace=wrap;rounded=0;fontFamily=Times New Roman;fontSize=20;fontStyle=0;fontColor=#0000FF;" vertex="1" parent="1">
          <mxGeometry x="220" y="880" width="40" height="30" as="geometry" />
        </mxCell>
        <mxCell id="7jVZ7a8TjIwQfbfn0_7j-98" value="" style="endArrow=classic;html=1;rounded=0;endFill=1;fontFamily=Times New Roman;fontColor=#0000FF;strokeColor=#0000FF;" edge="1" parent="1">
          <mxGeometry width="50" height="50" relative="1" as="geometry">
            <mxPoint x="280" y="880" as="sourcePoint" />
            <mxPoint x="280" y="840" as="targetPoint" />
          </mxGeometry>
        </mxCell>
        <mxCell id="7jVZ7a8TjIwQfbfn0_7j-99" value="&lt;span&gt;&lt;font&gt;t2&lt;/font&gt;&lt;/span&gt;" style="text;html=1;align=center;verticalAlign=middle;whiteSpace=wrap;rounded=0;fontFamily=Times New Roman;fontSize=20;fontStyle=0;fontColor=#0000FF;" vertex="1" parent="1">
          <mxGeometry x="260" y="880" width="40" height="30" as="geometry" />
        </mxCell>
        <mxCell id="7jVZ7a8TjIwQfbfn0_7j-100" value="" style="endArrow=classic;html=1;rounded=0;endFill=1;fontFamily=Times New Roman;fontColor=#0000FF;strokeColor=#0000FF;" edge="1" parent="1">
          <mxGeometry width="50" height="50" relative="1" as="geometry">
            <mxPoint x="320" y="880" as="sourcePoint" />
            <mxPoint x="320" y="840" as="targetPoint" />
          </mxGeometry>
        </mxCell>
        <mxCell id="7jVZ7a8TjIwQfbfn0_7j-101" value="&lt;span&gt;&lt;font&gt;t3&lt;/font&gt;&lt;/span&gt;" style="text;html=1;align=center;verticalAlign=middle;whiteSpace=wrap;rounded=0;fontFamily=Times New Roman;fontSize=20;fontStyle=0;fontColor=#0000FF;" vertex="1" parent="1">
          <mxGeometry x="300" y="880" width="40" height="30" as="geometry" />
        </mxCell>
        <mxCell id="7jVZ7a8TjIwQfbfn0_7j-102" value="" style="endArrow=classic;html=1;rounded=0;strokeWidth=2;strokeColor=#FF3333;" edge="1" parent="1">
          <mxGeometry width="50" height="50" relative="1" as="geometry">
            <mxPoint x="200" y="1000" as="sourcePoint" />
            <mxPoint x="250" y="840" as="targetPoint" />
          </mxGeometry>
        </mxCell>
        <mxCell id="7jVZ7a8TjIwQfbfn0_7j-103" value="" style="endArrow=classic;html=1;rounded=0;strokeWidth=2;strokeColor=#FF3333;" edge="1" parent="1">
          <mxGeometry width="50" height="50" relative="1" as="geometry">
            <mxPoint x="240" y="1000" as="sourcePoint" />
            <mxPoint x="310" y="840" as="targetPoint" />
          </mxGeometry>
        </mxCell>
        <mxCell id="7jVZ7a8TjIwQfbfn0_7j-104" value="" style="endArrow=classic;html=1;rounded=0;strokeWidth=2;strokeColor=#FF3333;" edge="1" parent="1">
          <mxGeometry width="50" height="50" relative="1" as="geometry">
            <mxPoint x="280" y="1000" as="sourcePoint" />
            <mxPoint x="330" y="840" as="targetPoint" />
          </mxGeometry>
        </mxCell>
        <mxCell id="7jVZ7a8TjIwQfbfn0_7j-105" value="" style="endArrow=classic;html=1;rounded=0;strokeWidth=2;strokeColor=#FF3333;" edge="1" parent="1">
          <mxGeometry width="50" height="50" relative="1" as="geometry">
            <mxPoint x="320" y="1002" as="sourcePoint" />
            <mxPoint x="350" y="840" as="targetPoint" />
          </mxGeometry>
        </mxCell>
        <mxCell id="7jVZ7a8TjIwQfbfn0_7j-106" value="t = h(s)" style="text;html=1;align=center;verticalAlign=middle;whiteSpace=wrap;rounded=0;fontFamily=Times New Roman;fontSize=20;fontStyle=1;fontColor=#FF3333;" vertex="1" parent="1">
          <mxGeometry x="360" y="920" width="80" height="40" as="geometry" />
        </mxCell>
      </root>
    </mxGraphModel>
  </diagram>
</mxfile>
